PathFileType	4	(X/Y/Z)	OpenSim_Sub03_EMGBaseline_Gyro.trc
DataRate	CameraRate	NumFrames	NumMarkers	Units	OrigDataRate	OrigDataStartFrame	OrigNumFrames
100	100	13	8	m	100	4608	7372
Frame#	Time	torso_imu_offset_imu	pelvis_imu_offset_imu	tibia_r_imu_offset_imu	femur_r_imu_offset_imu	tibia_l_imu_offset_imu	femur_l_imu_offset_imu	toes_r_imu_offset_imu	toes_l_imu_offset_imu
				X1	Y1	Z1	X2	Y2	Z2	X3	Y3	Z3	X4	Y4	Z4	X5	Y5	Z5	X6	Y6	Z6	X7	Y7	Z7	X8		Y8	Z8	

4608	46.07000000	0.24933042	-0.06427660	-0.01074844	0.58715799	-0.01137800	0.11468487	0.91872593	1.17557068	2.73241513	1.88551460	-0.37779944	-0.83777934	0.47761922	0.11667045	0.86444537	0.50430763	0.14595336	0.43633197	0.16648008	2.20914436	2.37825741	-0.01845935	-0.75526473	0.27698784
4609	46.08000000	0.25819996	-0.05836933	-0.00185461	0.57386250	0.00076645	0.13766315	0.79945831	1.00659106	2.41713410	1.95335800	-0.39163419	-0.75006831	0.46637559	0.12614877	0.93949831	0.48600541	0.17805248	0.38805534	-0.00083937	1.98531056	2.06801133	-0.02732719	-0.83946572	0.27842186
4610	46.09000000	0.26462801	-0.04650950	-0.00023300	0.54068870	0.02168230	0.15519730	0.60623329	0.82356824	2.05811766	1.79276343	-0.49790923	-0.64916902	0.41899285	0.14629538	1.00297553	0.48058919	0.20842565	0.34596190	-0.23823404	1.60861516	1.75606388	-0.02681449	-0.92479017	0.27850473
4611	46.10000000	0.26373576	-0.03502461	0.00040264	0.49123286	0.04025518	0.16217172	0.29339422	0.60338878	1.66090219	1.54314306	-0.65647023	-0.53934826	0.36091034	0.16262698	1.03493256	0.45176597	0.23990618	0.32565778	-0.43158171	1.18446823	1.41166375	-0.00351768	-1.02408923	0.28750185
4612	46.11000000	0.25734426	-0.02097489	-0.00060051	0.44194683	0.03964779	0.16278294	0.07679534	0.35392616	1.18312734	1.26597278	-0.74750924	-0.40546457	0.33498316	0.18799029	1.07256510	0.41735395	0.26720753	0.29182868	-0.44990067	0.77355526	1.01884517	0.00459388	-1.13075117	0.28920561
4613	46.12000000	0.24790910	-0.00070577	-0.01024940	0.40244765	0.02349617	0.15542922	0.02076188	0.11570964	0.64294041	0.93387784	-0.69297379	-0.24992054	0.30938642	0.21467320	1.14495882	0.39188379	0.29333816	0.25752968	-0.36342197	0.36203199	0.60692477	-0.00738324	-1.24894574	0.28806234
4614	46.13000000	0.23674636	0.01934035	-0.02529807	0.36248997	0.00086703	0.14011616	-0.01368935	-0.14593346	0.10122368	0.64764706	-0.55015152	-0.06370986	0.30754623	0.22999039	1.19740376	0.37761992	0.31427767	0.24783672	-0.24393666	-0.08331854	0.17220979	0.01317694	-1.36905572	0.28487622
4615	46.14000000	0.21808721	0.03773893	-0.04086783	0.32309198	-0.02034890	0.11500110	0.04519966	-0.36848267	-0.39580360	0.42209136	-0.41957054	0.14503718	0.34215362	0.23350694	1.21800431	0.33180345	0.34080618	0.24941132	-0.11587419	-0.53452248	-0.24309515	0.06011502	-1.51178971	0.27843445
4616	46.15000000	0.20439272	0.06672549	-0.06276221	0.31039872	-0.04392906	0.08858848	0.16584571	-0.54866065	-0.79442571	0.19149992	-0.36117174	0.30078236	0.37126515	0.25322188	1.26410606	0.28777666	0.36509332	0.24892872	-0.05693963	-0.96600972	-0.55093528	0.10390524	-1.65515912	0.26675430
4617	46.16000000	0.19257376	0.09814386	-0.08710671	0.31795693	-0.05712703	0.06901959	0.21923009	-0.73083577	-1.11241171	-0.03626472	-0.38815042	0.33307415	0.39777483	0.26925116	1.33410430	0.26323728	0.39223098	0.22831096	0.23960475	-1.41258191	-0.77984254	0.13988005	-1.78951104	0.25828618
4618	46.17000000	0.17733763	0.14244503	-0.11548440	0.33110616	-0.06169199	0.06384832	0.18534213	-0.90159794	-1.38080857	-0.27947692	-0.44331827	0.24434826	0.40952784	0.29421732	1.39032846	0.24505599	0.42793158	0.21853055	0.71078339	-1.93029187	-0.91212849	0.15866000	-1.92187485	0.25596607
4619	46.18000000	0.16636079	0.19198658	-0.14124142	0.34365615	-0.06918491	0.07187177	0.23973330	-0.99084408	-1.62793330	-0.49006126	-0.51327417	0.08306199	0.42521494	0.31362923	1.41984384	0.23170424	0.46334729	0.21844892	0.54982620	-1.85741922	-0.69719200	0.19765433	-2.04461245	0.24169598
4620	46.19000000	0.15965164	0.24765392	-0.16944245	0.35949329	-0.09297107	0.10080885	0.26134204	-0.92933701	-1.60188353	-0.58743953	-0.57500997	-0.14148673	0.45872752	0.33361340	1.45554538	0.21445418	0.50335686	0.21594146	0.55909550	-1.57012488	-0.58647102	0.24659959	-2.16528644	0.23499421
